# xmcd
#
# Track frame offsets:
#	150
#	20157
#	37549
#	55694
#	68912
#	86652
#	105319
#	123393
#	142100
#	162229
#	180147
#	202724
#
# Disc length: 2927 seconds
#
# Revision: 1
# Processed by: cddbd v1.5.2PL0 Copyright (c) Steve Scherf et al.
# Submitted via: audiograbber 1.83.01
#
DISCID=8f0b6d0c
DTITLE=Lisa Frederiksberg - Reis teg upp
DYEAR=2006
DGENRE=Gospel
TTITLE0=Reis teg upp
TTITLE1=Við mín kross
TTITLE2=Gjøgnum alt
TTITLE3=Gud mín á tindinum
TTITLE4=Vend nú við
TTITLE5=Hann vil bera teg
TTITLE6=Guds náði broytir alt
TTITLE7=So hjálp mær Gud
TTITLE8=Verdur
TTITLE9=Marta, Marta
TTITLE10=Mítt lív í tíni hond
TTITLE11=Ungur á Guds vegi
EXTD=
EXTT0=
EXTT1=
EXTT2=
EXTT3=
EXTT4=
EXTT5=
EXTT6=
EXTT7=
EXTT8=
EXTT9=
EXTT10=
EXTT11=
PLAYORDER=
